# xmcd
#
# Track frame offsets:
#	150
#	11640
#	22875
#	34600
#	44000
#	54162
#	65517
#	78232
#	89562
#	100022
#	117370
#	131390
#	142565
#	155132
#	169672
#	179940
#	198867
#	208415
#	221357
#
# Disc length: 3103 seconds
#
# Revision: 1
# Processed by: cddbd v1.5.2PL0 Copyright (c) Steve Scherf et al.
# Submitted via: audiograbber 1.83.01
#
DISCID=040c1d13
DTITLE=Various Artist - A Liitle Bit Country, A Little Bit Rock 'n' Roll (Read
DTITLE=er's Digest) [Disc 3]
DYEAR=2001
DGENRE=Country
TTITLE0=Willie Nelson - On The Road Again
TTITLE1=Lucky Starr - I've Been Everywhere
TTITLE2=Patsy Cline - Walkin' After Midnight
TTITLE3=Jerry Smith - Drivin' Home
TTITLE4=Dave Dudley - Six Days On The Road
TTITLE5=Billy Grammer - Gotta Travel On
TTITLE6=Susan Raye - L.A. International Airport
TTITLE7=Jack Scott - Cool Water
TTITLE8=Rusty Draper - Freight Train
TTITLE9=C.W. McCall - Convoy
TTITLE10=Rex Allen - Don't Go Near The Indians
TTITLE11=Johnny Horton - Battle Of New Orleans
TTITLE12=Bobbie and Laurie - Carroll County Accident
TTITLE13=Jeannie C. Riley - Harper Valley P.T.A.
TTITLE14=Jimmie Rodgers - Bimbombey
TTITLE15=Tom T. Hall - (Old Dogs, Children And) Watermelon Wine
TTITLE16=Del Shannon - The Swiss Maid
TTITLE17=The Browns - The Three Bells
TTITLE18=Johnny Chester - Shame And Scandal
EXTD=Readers Digest Music
EXTT0=
EXTT1=
EXTT2=
EXTT3=
EXTT4=
EXTT5=
EXTT6=
EXTT7=
EXTT8=
EXTT9=
EXTT10=
EXTT11=
EXTT12=
EXTT13=
EXTT14=
EXTT15=
EXTT16=
EXTT17=
EXTT18=
PLAYORDER=
